<svg width="79" height="129" viewBox="0 0 79 129" fill="none" xmlns="http://www.w3.org/2000/svg">
<path d="M39.6 1.11802V1.18254C39.6646 1.49867 39.6646 1.87932 39.6646 2.25997V47.8604C39.6 48.1121 39.4129 48.1766 39.2194 48.3056C37.8904 48.9379 36.6258 49.5056 35.2968 50.0734C33.4645 50.8927 31.5677 51.7831 29.729 52.6024L23.0902 55.6412C21.2579 56.4605 19.4192 57.2863 17.6514 58.1057C15.503 59.1186 13.2901 60.067 11.1352 61.0799C9.30296 61.8993 7.46423 62.7896 5.56743 63.609C4.05129 64.3058 2.52869 64.938 1.07707 65.6348C0.948032 65.6993 0.82545 65.7638 0.696416 65.7638C0.653405 65.7638 0.610394 65.7423 0.567383 65.6993L2.27708 62.8541C5.56743 57.4154 8.79327 52.0411 12.0772 46.6024C15.5546 40.7829 19.0966 34.9635 22.5741 29.1441C25.7999 23.7699 29.0903 18.3892 32.3161 13.0149C34.6581 9.0923 37.0581 5.16968 39.4 1.25351C39.4646 1.12448 39.5291 1.06641 39.5291 0.937378H39.5936C39.5291 1.00189 39.5936 1.06641 39.5936 1.12448L39.6 1.11802Z" fill="#8A92B2"/>
<path d="M78.4262 65.6929L78.4908 65.7574L69.1939 71.2607L39.9742 88.5254C39.8452 88.5899 39.7226 88.6544 39.6581 88.7125C39.471 88.7125 39.471 88.5254 39.471 88.4609V48.8088C39.471 48.6218 39.471 48.3637 39.5355 48.1766C39.6 47.925 39.7871 47.9895 39.9807 48.0476C40.8001 48.4282 41.6904 48.8089 42.5097 49.183C44.9743 50.3185 47.4453 51.4605 49.9098 52.5379C52.0582 53.4863 54.1486 54.4992 56.297 55.4476C58.4454 56.396 60.6003 57.4089 62.7487 58.3573C64.5809 59.1767 66.4777 60.067 68.3165 60.8864C70.1552 61.7058 72.0455 62.5961 73.8843 63.4155C75.3359 64.0477 76.794 64.7445 78.2456 65.3768C78.2456 65.5639 78.3101 65.6284 78.4327 65.6929H78.4262Z" fill="#454A75"/>
<path d="M39.5936 127.99C39.5936 128.055 39.5291 128.119 39.5291 128.177H39.4646C39.4646 128.048 39.3355 127.99 39.2775 127.861C35.3548 122.358 31.4322 116.79 27.516 111.293C23.5289 105.667 19.4837 99.9706 15.4966 94.3448C11.6385 88.906 7.71584 83.4027 3.85774 77.964C2.84483 76.5123 1.83191 75.1188 0.818998 73.6607C0.754482 73.5316 0.689965 73.4736 0.567383 73.28C0.754482 73.28 0.883515 73.4091 0.948032 73.4671C6.45131 76.693 11.8901 79.9188 17.3934 83.1446C23.716 86.8737 29.9806 90.6092 36.3032 94.3383L39.5291 96.2351C39.6581 96.3641 39.6581 96.4867 39.6581 96.6158V127.1C39.6581 127.416 39.6581 127.732 39.5936 127.984V127.99Z" fill="#8A92B2"/>
<path d="M0.509277 65.8219V65.7574C2.5351 64.8735 4.49642 63.9251 6.51579 63.0348C9.10937 61.8348 11.7029 60.6928 14.2965 59.4928C16.2578 58.6089 18.2837 57.6605 20.2385 56.7702C23.1482 55.4412 25.9934 54.1766 28.9031 52.8476C30.8644 51.9637 32.8257 51.0798 34.8451 50.125C36.2387 49.4927 37.6903 48.8604 39.0839 48.2282C39.2129 48.1637 39.4 48.0991 39.4645 47.9766C39.529 47.9766 39.529 48.0411 39.4645 48.1056V88.2673C39.4645 88.4544 39.4 88.6479 39.529 88.7705C39.4 88.9576 39.2774 88.7705 39.2129 88.706C38.6452 88.3899 38.0774 88.0737 37.5032 87.6931C25.3031 80.493 13.032 73.222 0.82541 66.009C0.760893 65.9445 0.638311 65.88 0.509277 65.8219Z" fill="#62688F"/>
<path d="M78.3036 73.2865H78.3681C78.3681 73.4155 78.2391 73.5381 78.181 73.6671C66.5422 90.048 54.9098 106.493 43.271 122.874C42.071 124.584 40.8064 126.287 39.6 127.997C39.5355 127.932 39.5355 127.868 39.5355 127.81V96.19C42.1936 94.6093 44.7871 93.0931 47.4388 91.5125C57.684 85.4415 67.9293 79.4349 78.1101 73.3639C78.1746 73.4284 78.2391 73.3639 78.2971 73.2994L78.3036 73.2865Z" fill="#62688F"/>
<path d="M39.5291 48.112V1.6922C39.5291 1.5051 39.4645 1.37606 39.5936 1.18896C52.4324 22.5053 65.2713 43.7507 78.0456 65.067C78.1746 65.2541 78.3617 65.5122 78.4262 65.7638C77.5424 65.4477 76.7165 65.0025 75.8972 64.6283C74.8843 64.1832 73.8133 63.6799 72.8004 63.2348C72.1681 62.9186 71.4713 62.667 70.8391 62.3509C69.7616 61.8477 68.6907 61.4025 67.6132 60.8993C66.981 60.6476 66.3487 60.3315 65.7164 60.0154L61.5422 58.1186C60.8454 57.8025 60.1486 57.4863 59.3938 57.1702L56.355 55.8411C55.7228 55.5895 55.0905 55.2734 54.4582 54.9573L50.284 53.0605C49.5872 52.7443 48.8904 52.4282 48.1356 52.1121L45.0969 50.783C44.4001 50.4669 43.7678 50.1508 43.071 49.8346C41.871 49.2669 40.6646 48.6991 39.4 48.1894C39.5871 48.1249 39.5291 48.1249 39.5291 48.1249V48.112Z" fill="#62688F"/>
</svg>
