<svg width="103" height="103" viewBox="0 0 103 103" fill="none" xmlns="http://www.w3.org/2000/svg">
<path d="M86.8484 32.0854C89.957 32.0854 92.9958 31.1636 95.5805 29.4365C98.1652 27.7095 100.18 25.2548 101.369 22.3828C102.559 19.5109 102.87 16.3506 102.264 13.3018C101.657 10.2529 100.16 7.45236 97.9622 5.25426C95.7641 3.05615 92.9636 1.55922 89.9147 0.952767C86.8659 0.346312 83.7056 0.657567 80.8337 1.84717C77.9617 3.03678 75.507 5.0513 73.78 7.636C72.0529 10.2207 71.1311 13.2595 71.1311 16.3681C71.131 18.4321 71.5374 20.476 72.3273 22.383C73.1171 24.2899 74.2748 26.0227 75.7343 27.4822C77.1938 28.9417 78.9266 30.0994 80.8335 30.8892C82.7405 31.679 84.7844 32.0855 86.8484 32.0854ZM38.6552 102.872C31.078 102.872 23.671 100.625 17.3708 96.4156C11.0706 92.2059 6.16017 86.2225 3.2605 79.2221C0.360834 72.2217 -0.397848 64.5186 1.0804 57.087C2.55864 49.6554 6.20741 42.8291 11.5653 37.4712C16.9232 32.1133 23.7496 28.4646 31.1812 26.9863C38.6128 25.5081 46.3158 26.2668 53.3163 29.1665C60.3167 32.0662 66.3 36.9766 70.5097 43.2768C74.7193 49.577 76.9662 56.9841 76.9662 64.5613C76.9663 69.5924 75.9754 74.5742 74.0502 79.2224C72.1249 83.8705 69.303 88.094 65.7454 91.6515C62.1879 95.209 57.9645 98.0309 53.3163 99.9562C48.6682 101.881 43.6863 102.872 38.6552 102.872Z" fill="#7D00FF"/>
</svg>
