<svg width="101" height="103" viewBox="0 0 101 103" fill="none" xmlns="http://www.w3.org/2000/svg">
<path d="M50.6692 102.344C22.8734 102.344 0.340538 79.6221 0.340538 51.5928C0.340538 23.5634 22.8734 0.841187 50.6692 0.841187C78.4649 0.841187 100.998 23.5634 100.998 51.5928C100.998 79.6221 78.4649 102.344 50.6692 102.344Z" fill="black"/>
<path d="M56.8468 64.6545C59.5859 55.017 62.5075 45.424 63.529 35.381C63.6963 33.7404 64.296 32.1654 65.1118 30.6842C67.1373 27.0103 73.8276 26.292 76.1076 30.8881C77.0397 32.7812 77.8061 34.7527 78.3982 36.7803C79.981 42.1099 80.784 47.5744 81.1942 53.115C81.6381 59.101 81.8252 65.0681 80.9757 71.0447C79.9461 78.2717 77.4789 85.065 74.9328 91.8408C74.2704 93.5881 73.5626 95.3307 72.9816 97.099C71.4198 97.8791 69.8185 98.5761 68.1844 99.1873C68.4505 98.0154 68.7991 96.8693 69.1617 95.7244C70.6132 91.126 72.5318 86.701 74.0577 82.1306C76.3947 75.1111 77.8183 67.951 77.544 60.4978C77.4394 57.7088 77.544 54.9197 77.3035 52.126C76.8607 46.9967 76.1274 41.9213 74.9583 36.9139C74.6225 35.4701 74.182 34.0275 73.2361 32.8369C71.7625 30.983 69.2407 31.249 68.153 33.3572C67.6882 34.2514 67.4778 35.2322 67.3907 36.2154C66.9034 41.7771 66.516 47.3459 66.2286 52.9217C66.0531 56.2029 65.7846 59.4783 65.6022 62.7596C65.4046 66.3092 65.0967 69.8564 64.9386 73.4049C64.7411 77.8146 64.59 82.2279 64.0473 86.606C63.4372 91.5478 61.9799 96.2025 58.8306 100.175C58.2809 100.869 57.6894 101.501 56.9712 101.956C55.2942 102.167 53.6078 102.293 51.9183 102.334C51.9334 102.04 51.9555 101.748 51.9462 101.453C51.5302 88.9064 53.4291 76.6791 56.8468 64.6545ZM24.5879 31.7318C25.313 30.1521 26.2578 28.7646 27.9917 28.1189C32.0683 26.6014 35.8417 28.733 37.1003 33.2834C37.9428 36.3303 38.0613 39.4943 38.611 42.5892C40.0056 50.3517 42.4076 57.8482 44.4739 65.4338C46.6703 73.4787 48.3239 81.6197 48.9259 89.9635C49.2246 94.0826 49.1316 98.2029 49.2095 102.323C47.7297 102.281 46.2666 102.175 44.8202 102.006C44.3185 101.69 43.8511 101.322 43.4256 100.908C40.0985 97.7846 38.5518 93.7533 37.5895 89.4232C36.2229 83.2744 36.4542 76.9779 35.9742 70.7471C35.6976 67.1588 35.593 63.5564 35.356 59.9658C35.0073 54.6232 34.6854 49.2783 34.3321 43.9357C34.166 41.4221 33.9835 38.9049 33.7162 36.3994C33.5907 35.2428 33.4001 34.0709 32.754 33.0502C31.6639 31.3264 29.4629 31.0896 28.0416 32.551C27.4362 33.1732 27.0445 33.9256 26.7482 34.7412C26.1462 36.3994 25.7906 38.1174 25.4606 39.8435C23.9162 47.9189 23.2433 56.0553 23.5617 64.2853C23.7173 68.0216 24.2231 71.7346 25.0725 75.3748C26.3008 80.7033 28.2404 85.7951 30.2055 90.8775C31.2421 93.5623 32.2601 96.2564 32.8632 99.0806C31.2313 98.4575 29.6327 97.7488 28.0742 96.9572C26.9597 93.4744 25.4838 90.1158 24.2636 86.6705C22.0638 80.4595 20.2555 74.1666 19.7546 67.5596C19.1736 59.8849 19.714 52.2549 20.9051 44.6728C21.6047 40.2162 22.6959 35.8498 24.5879 31.7318Z" fill="#FEFEFE"/>
<path d="M26.9621 34.7716C27.1946 34.1365 27.4723 33.5224 27.9255 33.0044C29.5525 31.1505 31.9243 31.5173 32.8935 33.7872C33.2131 34.5361 33.3363 35.3411 33.4932 36.138C33.8418 37.9216 33.6838 39.7368 33.8674 41.5286C34.3497 46.2326 34.4647 50.9622 34.8482 55.6743C35.1259 59.0845 35.1968 62.5087 35.4455 65.9201C35.75 70.0052 35.9104 74.0986 36.1881 78.1849C36.4066 81.3736 36.4403 84.5798 37.026 87.7322C37.9708 92.8146 39.5594 97.5993 43.3409 101.349C43.5081 101.502 43.6526 101.678 43.7697 101.872C40.0987 101.366 36.4949 100.449 33.0249 99.1392C32.955 98.7003 32.8611 98.2657 32.7436 97.8372C31.212 92.4536 29.0249 87.3079 27.1922 82.0345C25.0787 75.9878 23.8799 69.6547 23.6362 63.2482C23.4038 57.1099 23.9081 51.0009 24.7774 44.9283C25.2713 41.4947 25.757 38.0505 26.9621 34.7716ZM58.0358 101.348C61.1491 98.1841 62.6447 94.229 63.6139 89.9962C64.3263 86.865 64.5517 83.6857 64.7435 80.4865C64.9666 76.7599 65.2606 73.0333 65.4163 69.3044C65.5779 65.4372 65.8672 61.5759 66.0845 57.7146C66.4494 51.2013 66.9457 44.6939 67.3512 38.1818C67.4303 36.9232 67.5837 35.6681 67.9555 34.4552C68.3878 33.0642 69.163 32.006 70.7132 31.8771C72.2995 31.747 73.1537 32.7736 73.7684 34.0661C74.7388 36.1204 75.2152 38.3236 75.6034 40.5454C76.4773 45.5622 76.9514 50.6236 77.3152 55.7013C77.6824 60.8201 77.3663 65.8743 76.6725 70.9146C75.859 76.8443 73.8381 82.4423 71.715 88.004C70.3018 91.7072 68.7795 95.3868 67.9521 99.2704C64.6081 100.503 61.1431 101.371 57.6163 101.861C57.7323 101.672 57.8734 101.499 58.0358 101.348Z" fill="#FEFEFE"/>
<path d="M27.0041 33.2025C27.7653 31.8338 28.8739 31.0627 30.4904 31.1834C32.1301 31.3064 33.054 32.2685 33.5735 33.7615C33.964 34.8795 34.1069 36.0349 34.1975 37.2045C35.4061 52.8396 36.0569 68.5111 37.219 84.1474C37.7327 91.0767 39.427 97.6509 45.3538 102.067C44.6147 101.988 43.8787 101.894 43.1458 101.784C42.6015 101.234 42.0871 100.656 41.6048 100.05C37.7815 95.0787 36.4718 89.217 36.0662 83.1373C35.1725 69.7416 34.4648 56.3342 33.5956 42.942C33.4119 40.1213 33.5084 37.2572 32.767 34.4916C32.4637 33.3595 31.9361 32.3939 30.6054 32.2123C29.2446 32.0271 28.3974 32.7349 27.8164 33.8529C27.1598 35.0927 26.7705 36.431 26.4637 37.7963C25.1319 43.5982 24.4649 49.4951 24.1604 55.4271C23.7711 63.0138 24.222 70.5209 26.3394 77.8873C27.907 83.34 30.1487 88.5408 31.9175 93.9138C32.509 95.7068 33.1388 97.4927 33.534 99.3338C33.1466 99.1931 32.7643 99.0482 32.387 98.899L32.373 98.8369C31.1795 93.833 29.0308 89.1654 27.3341 84.3384C25.0424 77.8205 23.3829 71.1842 23.1343 64.2256C22.8309 55.9052 23.534 47.6623 25.1005 39.499C25.5131 37.3392 25.9163 35.1572 27.0041 33.2025ZM58.9272 99.3888C61.7721 95.5603 63.0318 91.14 63.6477 86.4982C64.345 81.2248 64.381 75.8916 64.7134 70.5853C65.4106 59.3834 66.0196 48.1756 66.89 36.9853C66.9876 35.722 67.1654 34.474 67.6814 33.3056C68.1834 32.1689 68.9725 31.4037 70.2659 31.2232C72.3705 30.9302 73.8894 32.0728 74.7435 34.7705C76.4518 40.1611 77.0677 45.7568 77.6267 51.356C78.8132 63.3338 77.5663 74.9716 73.0585 86.2134C71.3769 90.4088 69.6117 94.6029 68.6088 99.0256C68.2439 99.1662 67.877 99.3021 67.5082 99.4334C68.4379 95.0341 70.1358 90.8787 71.7767 86.7279C75.177 78.1041 77.213 69.2435 77.0492 59.9189C76.9544 53.2582 76.302 46.6174 75.0991 40.0674C74.7133 38.0013 74.3135 35.9107 73.3258 34.0099C72.7215 32.8474 71.901 32.0447 70.4763 32.2439C69.1642 32.4256 68.625 33.3841 68.3147 34.5244C68.1411 35.1283 68.0243 35.7475 67.9661 36.3736C67.6826 40.0533 67.3943 43.7341 67.1701 47.4185C66.4565 59.1513 65.8336 70.8912 65.0504 82.6205C64.5855 89.6599 63.2398 96.4287 58.2637 101.77C57.6106 101.869 56.954 101.956 56.2939 102.03C57.2831 101.27 58.1685 100.382 58.9272 99.3888Z" fill="#010101"/>
<path d="M42.796 28.2877C42.8518 28.9064 43.4317 28.7881 43.8093 28.8888C46.0464 29.4806 47.9802 30.5002 49.0388 32.6986C49.4432 33.5412 49.6873 34.4564 50.0011 35.3494C50.1173 35.6939 49.9732 36.199 50.6007 36.2224C51.2898 36.2482 51.1969 35.6892 51.3305 35.3037C51.5932 34.5443 51.7954 33.7603 52.0963 33.0162C53.0865 30.5693 55.1236 29.5006 57.5048 28.8842C57.8918 28.7834 58.5298 28.9111 58.5449 28.276C58.56 27.6408 57.9499 27.7263 57.5455 27.6361C54.1463 26.8838 52.1103 24.7756 51.3514 21.3642C51.2573 20.9412 51.3886 20.292 50.6228 20.3096C49.8256 20.3236 50.0592 21.0127 49.9604 21.4158C49.1144 24.8494 47.0551 26.9928 43.5688 27.6748C43.2388 27.7357 42.8181 27.7322 42.796 28.2877Z" fill="#FAFAFA"/>
</svg>
