<svg width="106" height="108" viewBox="0 0 106 108" fill="none" xmlns="http://www.w3.org/2000/svg">
<g clip-path="url(#clip0_83_378)">
<mask id="mask0_83_378" style="mask-type:alpha" maskUnits="userSpaceOnUse" x="0" y="0" width="106" height="108">
<path d="M0 0.522339H106V107.522H0V0.522339Z" fill="white"/>
</mask>
<g mask="url(#mask0_83_378)">
<path fill-rule="evenodd" clip-rule="evenodd" d="M53 0.522339C82.2717 0.522339 106 24.4745 106 54.0223C106 83.5677 82.2717 107.522 53 107.522C23.7283 107.522 0 83.5677 0 54.0223C0 24.4745 23.7283 0.522339 53 0.522339Z" fill="#2775CA"/>
</g>
<path fill-rule="evenodd" clip-rule="evenodd" d="M43.0649 91.2193C43.0649 92.4778 42.0886 93.1927 40.8829 92.8127C24.8582 87.6524 13.2397 72.4846 13.2397 54.5876C13.2397 36.6912 24.8582 21.5228 40.8829 16.3624C42.0886 15.9849 43.0649 16.6974 43.0649 17.9559V21.0625C43.0649 21.9003 42.4217 22.8864 41.6309 23.1594C28.9524 27.8589 19.8702 40.1535 19.8702 54.5663C19.8702 68.9791 28.9524 81.2762 41.6309 85.9732C42.4217 86.2675 43.0649 87.2317 43.0649 88.0725V91.2193Z" fill="white"/>
<path fill-rule="evenodd" clip-rule="evenodd" d="M56.3043 79.6586C56.3043 80.5826 55.5563 81.3377 54.642 81.3377H51.3368C50.4225 81.3377 49.6745 80.5826 49.6745 79.6586V74.3724C42.4412 73.3869 38.9089 69.2948 37.9525 63.7356C37.7856 62.7902 38.5337 61.9306 39.4901 61.9306H43.2729C44.0625 61.9306 44.728 62.4978 44.8943 63.2936C45.6013 66.6088 47.4925 69.1476 53.2905 69.1476C57.5721 69.1476 60.6075 66.7347 60.6075 63.1277C60.6075 59.5176 58.8194 58.1546 52.5425 57.1047C43.2729 55.8462 38.8878 53.0131 38.8878 45.6702C38.8878 40.0059 43.1284 35.6007 49.6956 34.6559V29.4737C49.6956 28.5502 50.4442 27.7946 51.3578 27.7946H54.6631C55.5774 27.7946 56.3254 28.5502 56.3254 29.4737V34.8031C61.6669 35.7697 65.0547 38.8308 66.1569 43.9078C66.3641 44.8744 65.616 45.7748 64.6398 45.7748H61.1472C60.3992 45.7748 59.7758 45.2708 59.5476 44.537C58.6122 41.3076 56.3254 39.9233 52.3552 39.9233C47.9701 39.9233 45.7043 42.0626 45.7043 45.0623C45.7043 48.2303 46.9938 49.8238 53.7284 50.8117C62.8305 52.0702 67.5289 54.6923 67.5289 62.5197C67.5289 68.4564 63.1636 73.261 56.3254 74.3724V79.6586H56.3043Z" fill="white"/>
<path fill-rule="evenodd" clip-rule="evenodd" d="M65.1173 92.8128C63.9128 93.1927 62.9353 92.4778 62.9353 91.2193V88.1151C62.9353 87.1916 63.4966 86.332 64.3693 86.0158C77.0478 81.3163 86.13 69.0217 86.13 54.6089C86.13 40.1961 77.0478 27.9014 64.3693 23.202C63.5797 22.9077 62.9353 21.9435 62.9353 21.1027V17.9985C62.9353 16.74 63.9128 16.0062 65.1173 16.4026C81.142 21.5659 92.7605 36.7338 92.7605 54.6302C92.7406 72.484 81.142 87.6312 65.1173 92.8128Z" fill="white"/>
</g>
<defs>
<clipPath id="clip0_83_378">
<rect width="106" height="107" fill="white" transform="translate(0 0.522217)"/>
</clipPath>
</defs>
</svg>
