<svg width="123" height="128" viewBox="0 0 123 128" fill="none" xmlns="http://www.w3.org/2000/svg">
<path d="M43.7556 56.01V55.7958L43.7102 55.5865C43.4486 54.3791 43.2272 53.2264 43.2272 52.1173C43.2272 48.2512 44.7076 45.1291 47.2 42.8402C49.7224 40.5238 53.3787 38.9792 57.7936 38.542L59.5965 38.3635V36.5518V31.4417H60.4827V36.5518V38.3878L62.312 38.5445C70.1739 39.2179 76.0169 43.7844 77.1771 50.5215H74.0868C73.5377 48.1181 72.3751 46.0733 70.6839 44.4871C68.6088 42.5409 65.8581 41.3957 62.7682 41.0118C61.828 40.8586 60.9082 40.8587 60.1675 40.8588L60.1076 40.8588H59.71C59.6277 40.8588 59.5462 40.86 59.4657 40.8622V40.7162L57.209 41.0083C50.2721 41.9061 46.0909 46.3034 46.0909 51.5802V51.8461C46.0909 51.8649 46.0909 51.8846 46.0908 51.9052C46.0901 52.2492 46.0889 52.8428 46.264 53.4849C46.2924 53.6298 46.3288 53.7418 46.3523 53.8098C46.3564 53.8215 46.3604 53.8329 46.3644 53.8439C46.4116 54.3541 46.5891 54.7959 46.7115 55.0574C46.7753 55.2794 46.8543 55.4483 46.8965 55.5353C46.962 55.6702 47.0543 55.8368 47.1773 56.008C47.2226 56.098 47.2746 56.1984 47.3284 56.2944C47.4014 56.4244 47.5457 56.6731 47.7648 56.9159C47.7732 56.9285 47.7827 56.943 47.796 56.9634L47.7992 56.9684C47.8301 57.0156 47.8863 57.1016 47.9494 57.1888C47.9666 57.2125 47.9873 57.2406 48.0114 57.272C48.2641 57.7029 48.5418 57.9796 48.7792 58.2162L48.7836 58.2206C48.8543 58.2916 48.9192 58.3484 48.9663 58.3881C48.9896 58.4077 49.0121 58.426 49.0323 58.4422C49.0345 58.444 49.0367 58.4458 49.0389 58.4476L49.2194 58.8218L49.6613 59.0464C49.7129 59.0987 49.8024 59.1876 49.9047 59.2758C50.0407 59.393 50.2318 59.5384 50.4805 59.6649C50.4918 59.6706 50.5029 59.6759 50.5968 59.7394L50.6146 59.7514C50.7091 59.8154 50.8793 59.9306 51.0975 60.047C51.1231 60.0651 51.1561 60.0899 51.2258 60.1432L51.2348 60.1501C51.2952 60.1964 51.39 60.2689 51.4906 60.3394C51.5971 60.4141 51.7473 60.5133 51.9277 60.6051C51.9283 60.6055 51.929 60.6058 51.9297 60.6061L52.7148 61.0079L52.7196 61.0103C53.0889 61.198 53.5816 61.3676 53.9089 61.4802C53.9125 61.4815 53.9162 61.4828 53.9198 61.484C54.0844 61.5605 54.249 61.6272 54.359 61.6717L54.3915 61.6848C54.5783 61.7606 54.653 61.7931 54.6883 61.8114L54.8949 61.9185L55.1205 61.9752C55.5378 62.0802 55.7861 62.1655 56.1496 62.3521L56.2569 62.4072L56.37 62.4489C57.9972 63.0499 59.9792 63.4774 62.1536 63.7549L63.3641 63.9991C70.4393 65.7036 74.6088 68.2025 76.5694 71.7373L76.9869 72.4901L77.8206 72.7043C101.689 78.8377 115.805 67.5255 118.278 65.4572L119.939 64.0677L118.422 62.5222L61.9273 4.96101L60.5016 3.50837L59.0742 4.95936L4.42093 60.5157L7.03586 63.5263C11.0824 60.5338 22.7606 53.5748 41.2949 57.9616L43.7556 58.544V56.0153V56.01Z" fill="#00FBB2" stroke="white" stroke-width="4"/>
<path d="M118.426 62.3934L117.086 61.03L115.664 62.3074C113.711 64.0612 100.911 74.38 78.8215 68.7026L74.2812 67.5356L76.5808 71.6207C77.4667 73.1943 78.0396 75.1371 78.0396 77.4838C78.0396 81.854 76.3228 85.123 73.5984 87.4312C70.824 89.7817 66.8968 91.2175 62.4452 91.5935L60.6135 91.7483V93.5864V98.6965H59.7273V93.5864V91.7462L57.8934 91.5933C49.682 90.9091 43.3165 86.3625 42.0059 79.3508H45.0957C45.3069 80.173 45.5952 80.9386 45.9288 81.646C46.0389 81.9937 46.2075 82.2381 46.2909 82.3522C46.3522 82.436 46.4191 82.5163 46.4776 82.5828C46.5155 82.6521 46.5596 82.7394 46.623 82.8675L46.6347 82.8912C46.7286 83.0811 46.8717 83.3704 47.0658 83.6703L47.1764 83.8412L47.3191 83.9862L47.7167 84.3904C47.7547 84.429 47.8166 84.5034 47.9646 84.6918C47.9721 84.7014 47.98 84.7115 47.9883 84.722C48.1043 84.87 48.2913 85.1085 48.4929 85.3175L48.4997 85.3246L48.5067 85.3317C48.6491 85.4765 48.7888 85.5829 48.8692 85.6418C48.9454 85.6977 49.0235 85.7503 49.0661 85.7791L49.0772 85.7865C49.0853 85.7921 49.0925 85.7969 49.0989 85.8012C49.3401 86.0484 49.8379 86.5446 50.5831 86.8384C50.6088 86.8515 50.6327 86.8638 50.6563 86.8761C50.6761 86.8865 50.6932 86.8955 50.7081 86.9035L50.937 87.1455L51.3848 87.2952C51.3999 87.3039 51.442 87.3278 51.5289 87.381C51.5371 87.3861 51.546 87.3915 51.5555 87.3974C51.6938 87.4826 51.9701 87.6529 52.3219 87.7886C52.6392 87.9368 53.1093 88.1119 53.61 88.1806L54.5718 88.508L54.582 88.5114C54.9099 88.6211 55.2311 88.6786 55.3892 88.7069C55.4055 88.7098 55.42 88.7124 55.4327 88.7147C55.4564 88.7191 55.4755 88.7227 55.4917 88.7258L55.5061 88.733L55.6387 88.7773C56.012 88.9021 56.3585 88.956 56.5703 88.9889L56.5759 88.9897L56.6124 88.9954C56.827 89.0287 56.9543 89.0485 57.1033 89.086L57.3436 89.1464H57.5782C57.5891 89.1483 57.6154 89.1532 57.6664 89.1646C57.672 89.1658 57.6795 89.1676 57.6887 89.1696C57.7432 89.1821 57.8543 89.2074 57.9567 89.2261C58.0407 89.2414 58.1482 89.2583 58.2729 89.2689C59.061 89.4126 59.7153 89.4124 60.3137 89.4123L60.364 89.4123H60.7616C61.7971 89.4123 62.794 89.2732 63.5876 89.1432C64.3477 89.1165 65.0329 88.9308 65.4921 88.7773C65.5279 88.7653 65.5694 88.7564 65.7962 88.7147C65.8875 88.698 66.0363 88.6705 66.1925 88.6302C66.313 88.5991 66.469 88.5528 66.6407 88.4807C66.9514 88.3768 67.3856 88.2293 67.7586 88.0521C67.7766 88.0484 67.7978 88.0441 67.8263 88.0383L67.8398 88.0356C67.9142 88.0207 68.0485 87.9938 68.1862 87.9576C68.3013 87.9272 68.4584 87.8807 68.6326 87.8068C69.0788 87.6503 69.5308 87.4398 69.9756 87.0639C70.0499 87.0247 70.1291 86.9817 70.2054 86.9374C70.3063 86.8789 70.4775 86.7766 70.6613 86.6291C71.1034 86.3452 71.4654 85.9751 71.6444 85.7909C71.6828 85.7613 71.7574 85.7032 71.8254 85.646C71.9725 85.522 72.2049 85.3096 72.4141 84.9948C72.6798 84.6859 72.8608 84.3842 72.9861 84.1485C73.1459 83.9639 73.3361 83.7084 73.5145 83.3526L73.518 83.3457L73.5214 83.3388C73.6364 83.1049 73.7741 82.8219 73.9169 82.4422C74.0171 82.2741 74.0787 82.1265 74.1182 82.0253C74.171 81.8901 74.1733 81.8784 74.1776 81.8675C74.1793 81.8631 74.1814 81.8588 74.1874 81.8464L74.2467 81.7233L74.2888 81.5934C74.2959 81.5714 74.3036 81.5478 74.3119 81.5226C74.406 81.2351 74.5663 80.7455 74.6251 80.186C74.6297 80.1736 74.6345 80.1609 74.6392 80.1478C74.6766 80.0442 74.7237 79.8929 74.7524 79.7055C74.91 78.9799 74.9095 78.2909 74.9091 77.8185C74.9091 77.7968 74.9091 77.7757 74.9091 77.755C74.9091 75.1045 74.2374 72.6815 72.1996 70.6764C70.267 68.7748 67.3078 67.4583 63.2363 66.425L62.9942 66.3635H62.8282C61.3353 65.8497 59.5621 65.4649 57.5806 65.1068L57.3738 65.0017L57.1468 64.9467C49.0538 62.9858 44.8712 59.7902 43.7006 55.1293L43.3978 53.9237L42.1827 53.6615C22.1829 49.346 9.32701 56.8662 4.66278 60.3155L4.53642 60.4089L4.42621 60.521L2.5795 62.3982L2.00525 62.9819V63.8008V63.9337V64.7526L2.5795 65.3363L59.0795 122.77L60.5069 124.221L61.9326 122.768L118.433 65.2017L119.809 63.7997L118.432 62.3987L118.426 62.3934ZM67.7022 88.0645C67.7021 88.0645 67.7022 88.0645 67.7023 88.0645C67.7023 88.0645 67.7022 88.0645 67.7022 88.0645L67.7022 88.0645Z" fill="#09C39F" stroke="white" stroke-width="4"/>
</svg>
