<svg width="110" height="113" viewBox="0 0 110 113" fill="none" xmlns="http://www.w3.org/2000/svg">
<path d="M54.74 110.567C83.8675 110.567 107.48 86.2878 107.48 56.3374C107.48 26.387 83.8675 2.10742 54.74 2.10742C25.6125 2.10742 2 26.387 2 56.3374C2 86.2878 25.6125 110.567 54.74 110.567Z" fill="#1BA27A"/>
<path d="M54.74 4.10742C82.71 4.10742 105.48 27.4374 105.48 56.3374H109.48C109.47 25.3374 85.02 0.107422 54.74 0.107422V4.10742ZM4 56.3374C4 27.4374 26.77 4.10742 54.74 4.10742V0.107422C24.45 0.107422 0 25.3374 0 56.3374H4ZM54.74 108.567C26.77 108.567 4 85.2374 4 56.3374H0C0 87.3374 24.45 112.567 54.74 112.567V108.567ZM105.48 56.3374C105.48 85.2374 82.71 108.567 54.74 108.567V112.567C85.02 112.567 109.48 87.3374 109.48 56.3374H105.48Z" fill="white"/>
<path d="M79.49 29.4574H29.55V41.8474H48.4901V60.0674H60.55V41.8474H79.49V29.4574Z" fill="white"/>
<path d="M86.49 57.2674C86.49 53.2074 72.23 49.9274 54.63 49.9274C37.03 49.9274 22.77 53.2174 22.77 57.2674C22.77 60.8374 33.83 63.8174 48.48 64.4774V90.6374H60.53V64.4874C75.3 63.8474 86.47 60.8574 86.47 57.2674H86.49ZM54.63 62.0174C38.96 62.0174 26.26 59.4674 26.26 56.3174C26.26 53.1674 38.96 50.6174 54.63 50.6174C70.3 50.6174 83 53.1674 83 56.3174C83 59.4674 70.3 62.0174 54.63 62.0174Z" fill="white"/>
</svg>
